<mxfile host="app.diagrams.net" modified="2023-09-14T14:17:25.154Z" agent="Mozilla/5.0 (Windows NT 10.0; Win64; x64) AppleWebKit/537.36 (KHTML, like Gecko) Chrome/116.0.0.0 Safari/537.36" etag="lYjTQLsJ_9i46nv2XCqp" version="21.7.5" type="github">
  <diagram name="페이지-1" id="Zk5fgfIC2XVN616qquzH">
    <mxGraphModel dx="989" dy="517" grid="0" gridSize="10" guides="1" tooltips="1" connect="1" arrows="1" fold="1" page="1" pageScale="1" pageWidth="827" pageHeight="1169" math="0" shadow="0">
      <root>
        <mxCell id="0" />
        <mxCell id="1" parent="0" />
        <mxCell id="s71p1avq3RNVjSZ0dHbL-8" value="" style="rounded=0;whiteSpace=wrap;html=1;verticalAlign=top;" vertex="1" parent="1">
          <mxGeometry x="200" y="160" width="160" height="320" as="geometry" />
        </mxCell>
        <mxCell id="s71p1avq3RNVjSZ0dHbL-9" value="Stack 3 (modifyObject)" style="rounded=0;whiteSpace=wrap;html=1;verticalAlign=top;fillColor=#ffe6cc;strokeColor=#d79b00;fontFamily=BinggraeMelona-Bold;fontSource=https%3A%2F%2Fcdn.jsdelivr.net%2Fgh%2Fprojectnoonnu%2Fnoonfonts_twelve%401.0%2FBinggraeMelona-Bold.woff;" vertex="1" parent="1">
          <mxGeometry x="199.97" y="240" width="160" height="80" as="geometry" />
        </mxCell>
        <mxCell id="s71p1avq3RNVjSZ0dHbL-10" value="Stack 2 (testRun)" style="rounded=0;whiteSpace=wrap;html=1;verticalAlign=top;fillColor=#fff2cc;strokeColor=#d6b656;fontFamily=BinggraeMelona-Bold;fontSource=https%3A%2F%2Fcdn.jsdelivr.net%2Fgh%2Fprojectnoonnu%2Fnoonfonts_twelve%401.0%2FBinggraeMelona-Bold.woff;" vertex="1" parent="1">
          <mxGeometry x="200" y="320" width="159.97" height="80" as="geometry" />
        </mxCell>
        <mxCell id="s71p1avq3RNVjSZ0dHbL-23" style="edgeStyle=orthogonalEdgeStyle;rounded=0;orthogonalLoop=1;jettySize=auto;html=1;exitX=1;exitY=0.5;exitDx=0;exitDy=0;entryX=1;entryY=0.5;entryDx=0;entryDy=0;strokeWidth=2;strokeColor=#FF1919;" edge="1" parent="1" source="s71p1avq3RNVjSZ0dHbL-11" target="s71p1avq3RNVjSZ0dHbL-12">
          <mxGeometry relative="1" as="geometry">
            <Array as="points">
              <mxPoint x="380" y="379" />
              <mxPoint x="380" y="300" />
            </Array>
          </mxGeometry>
        </mxCell>
        <mxCell id="s71p1avq3RNVjSZ0dHbL-11" value="&lt;font style=&quot;font-size: 12px;&quot;&gt;parameter&lt;/font&gt; = &lt;br&gt;User 주소 값" style="ellipse;whiteSpace=wrap;html=1;fontFamily=BinggraeMelona-Bold;fontSource=https%3A%2F%2Fcdn.jsdelivr.net%2Fgh%2Fprojectnoonnu%2Fnoonfonts_twelve%401.0%2FBinggraeMelona-Bold.woff;fontSize=7;fillColor=#60a917;fontColor=#ffffff;strokeColor=#2D7600;" vertex="1" parent="1">
          <mxGeometry x="264.97" y="361" width="95.03" height="36" as="geometry" />
        </mxCell>
        <mxCell id="s71p1avq3RNVjSZ0dHbL-12" value="&lt;font style=&quot;font-size: 12px;&quot;&gt;argument&lt;/font&gt; =&amp;nbsp;&lt;br&gt;User&lt;span style=&quot;font-size: 7px;&quot;&gt;&amp;nbsp;주소 값&lt;/span&gt;" style="ellipse;whiteSpace=wrap;html=1;fontFamily=BinggraeMelona-Bold;fontSource=https%3A%2F%2Fcdn.jsdelivr.net%2Fgh%2Fprojectnoonnu%2Fnoonfonts_twelve%401.0%2FBinggraeMelona-Bold.woff;fontSize=5;fillColor=#008a00;fontColor=#ffffff;strokeColor=#005700;" vertex="1" parent="1">
          <mxGeometry x="263" y="282" width="94.97" height="36" as="geometry" />
        </mxCell>
        <mxCell id="s71p1avq3RNVjSZ0dHbL-13" value="" style="ellipse;shape=cloud;whiteSpace=wrap;html=1;fillColor=#dae8fc;strokeColor=#6c8ebf;" vertex="1" parent="1">
          <mxGeometry x="420" y="130" width="320" height="340" as="geometry" />
        </mxCell>
        <mxCell id="s71p1avq3RNVjSZ0dHbL-14" value="Stack" style="text;html=1;strokeColor=none;fillColor=none;align=center;verticalAlign=middle;whiteSpace=wrap;rounded=0;fontSize=30;fontFamily=yg-jalnan;fontSource=https%3A%2F%2Fcdn.jsdelivr.net%2Fgh%2Fprojectnoonnu%2Fnoonfonts_four%401.2%2FJalnanOTF00.woff;fontColor=#FFE608;" vertex="1" parent="1">
          <mxGeometry x="250" y="100" width="60" height="30" as="geometry" />
        </mxCell>
        <mxCell id="s71p1avq3RNVjSZ0dHbL-15" value="Heap" style="text;html=1;strokeColor=none;fillColor=none;align=center;verticalAlign=middle;whiteSpace=wrap;rounded=0;fontSize=30;fontFamily=yg-jalnan;fontSource=https%3A%2F%2Fcdn.jsdelivr.net%2Fgh%2Fprojectnoonnu%2Fnoonfonts_four%401.2%2FJalnanOTF00.woff;fontColor=#2B32FF;" vertex="1" parent="1">
          <mxGeometry x="550" y="100" width="60" height="30" as="geometry" />
        </mxCell>
        <mxCell id="s71p1avq3RNVjSZ0dHbL-31" style="edgeStyle=orthogonalEdgeStyle;rounded=0;orthogonalLoop=1;jettySize=auto;html=1;exitX=0;exitY=0.5;exitDx=0;exitDy=0;entryX=0;entryY=0.5;entryDx=0;entryDy=0;" edge="1" parent="1" source="s71p1avq3RNVjSZ0dHbL-16" target="s71p1avq3RNVjSZ0dHbL-17">
          <mxGeometry relative="1" as="geometry">
            <Array as="points">
              <mxPoint x="204" y="365" />
              <mxPoint x="180" y="365" />
              <mxPoint x="180" y="281" />
            </Array>
          </mxGeometry>
        </mxCell>
        <mxCell id="s71p1avq3RNVjSZ0dHbL-16" value="&lt;font style=&quot;font-size: 9px;&quot;&gt;int age = 5&lt;/font&gt;" style="ellipse;whiteSpace=wrap;html=1;fontFamily=BinggraeMelona-Bold;fontSource=https%3A%2F%2Fcdn.jsdelivr.net%2Fgh%2Fprojectnoonnu%2Fnoonfonts_twelve%401.0%2FBinggraeMelona-Bold.woff;fillColor=#fad9d5;strokeColor=#ae4132;" vertex="1" parent="1">
          <mxGeometry x="204" y="348" width="60" height="30" as="geometry" />
        </mxCell>
        <mxCell id="s71p1avq3RNVjSZ0dHbL-17" value="int age = 5" style="ellipse;whiteSpace=wrap;html=1;fontFamily=BinggraeMelona-Bold;fontSource=https%3A%2F%2Fcdn.jsdelivr.net%2Fgh%2Fprojectnoonnu%2Fnoonfonts_twelve%401.0%2FBinggraeMelona-Bold.woff;fontSize=5;fillColor=#fad7ac;strokeColor=#b46504;" vertex="1" parent="1">
          <mxGeometry x="205" y="266" width="60" height="30" as="geometry" />
        </mxCell>
        <mxCell id="s71p1avq3RNVjSZ0dHbL-20" value="값이 복사" style="text;html=1;strokeColor=none;fillColor=none;align=center;verticalAlign=middle;whiteSpace=wrap;rounded=0;fontFamily=BinggraeMelona-Bold;fontSource=https%3A%2F%2Fcdn.jsdelivr.net%2Fgh%2Fprojectnoonnu%2Fnoonfonts_twelve%401.0%2FBinggraeMelona-Bold.woff;fontSize=15;fontColor=#FFB366;" vertex="1" parent="1">
          <mxGeometry x="103" y="310" width="70" height="30" as="geometry" />
        </mxCell>
        <mxCell id="s71p1avq3RNVjSZ0dHbL-24" value="주소 값이 복사" style="text;html=1;strokeColor=none;fillColor=none;align=center;verticalAlign=middle;whiteSpace=wrap;rounded=0;fontFamily=BinggraeMelona-Bold;fontSource=https%3A%2F%2Fcdn.jsdelivr.net%2Fgh%2Fprojectnoonnu%2Fnoonfonts_twelve%401.0%2FBinggraeMelona-Bold.woff;fontSize=15;fontColor=#FF1919;" vertex="1" parent="1">
          <mxGeometry x="379" y="314" width="70" height="30" as="geometry" />
        </mxCell>
        <mxCell id="s71p1avq3RNVjSZ0dHbL-25" value="" style="endArrow=classic;html=1;rounded=0;dashed=1;exitX=1;exitY=0.5;exitDx=0;exitDy=0;strokeColor=#FF0000;" edge="1" parent="1" source="s71p1avq3RNVjSZ0dHbL-11" target="s71p1avq3RNVjSZ0dHbL-26">
          <mxGeometry width="50" height="50" relative="1" as="geometry">
            <mxPoint x="350" y="450" as="sourcePoint" />
            <mxPoint x="484.82758620689657" y="480" as="targetPoint" />
          </mxGeometry>
        </mxCell>
        <mxCell id="s71p1avq3RNVjSZ0dHbL-26" value="userName = &quot;짱구&quot;" style="ellipse;whiteSpace=wrap;html=1;fillColor=#e1d5e7;strokeColor=#9673a6;" vertex="1" parent="1">
          <mxGeometry x="511" y="256.5" width="110" height="47" as="geometry" />
        </mxCell>
        <mxCell id="s71p1avq3RNVjSZ0dHbL-27" value="" style="endArrow=classic;html=1;rounded=0;dashed=1;exitX=1;exitY=0.5;exitDx=0;exitDy=0;entryX=0;entryY=0.5;entryDx=0;entryDy=0;strokeColor=#FF0000;" edge="1" parent="1" source="s71p1avq3RNVjSZ0dHbL-12" target="s71p1avq3RNVjSZ0dHbL-26">
          <mxGeometry width="50" height="50" relative="1" as="geometry">
            <mxPoint x="360" y="460" as="sourcePoint" />
            <mxPoint x="556" y="354" as="targetPoint" />
          </mxGeometry>
        </mxCell>
        <mxCell id="s71p1avq3RNVjSZ0dHbL-28" value="User 인스턴스" style="text;html=1;strokeColor=none;fillColor=none;align=center;verticalAlign=middle;whiteSpace=wrap;rounded=0;fontFamily=yg-jalnan;fontSource=https%3A%2F%2Fcdn.jsdelivr.net%2Fgh%2Fprojectnoonnu%2Fnoonfonts_four%401.2%2FJalnanOTF00.woff;fontSize=15;fontColor=#000066;" vertex="1" parent="1">
          <mxGeometry x="512" y="222" width="109" height="30" as="geometry" />
        </mxCell>
        <mxCell id="s71p1avq3RNVjSZ0dHbL-29" value="Stack 1 (main)" style="rounded=0;whiteSpace=wrap;html=1;verticalAlign=top;fillColor=#d5e8d4;strokeColor=#82b366;fontFamily=BinggraeMelona-Bold;fontSource=https%3A%2F%2Fcdn.jsdelivr.net%2Fgh%2Fprojectnoonnu%2Fnoonfonts_twelve%401.0%2FBinggraeMelona-Bold.woff;" vertex="1" parent="1">
          <mxGeometry x="199.97" y="400" width="160" height="80" as="geometry" />
        </mxCell>
        <mxCell id="s71p1avq3RNVjSZ0dHbL-30" value="objectTest&amp;nbsp;= ObjectTest&amp;nbsp; 주소 값" style="ellipse;whiteSpace=wrap;html=1;fontFamily=BinggraeMelona-Bold;fontSource=https%3A%2F%2Fcdn.jsdelivr.net%2Fgh%2Fprojectnoonnu%2Fnoonfonts_twelve%401.0%2FBinggraeMelona-Bold.woff;fillColor=#1ba1e2;fontColor=#ffffff;strokeColor=#006EAF;" vertex="1" parent="1">
          <mxGeometry x="239" y="426" width="115" height="51" as="geometry" />
        </mxCell>
        <mxCell id="s71p1avq3RNVjSZ0dHbL-33" value="" style="ellipse;whiteSpace=wrap;html=1;fontFamily=BinggraeMelona-Bold;fontSource=https%3A%2F%2Fcdn.jsdelivr.net%2Fgh%2Fprojectnoonnu%2Fnoonfonts_twelve%401.0%2FBinggraeMelona-Bold.woff;fillColor=#1ba1e2;fontColor=#ffffff;strokeColor=#006EAF;" vertex="1" parent="1">
          <mxGeometry x="558" y="369" width="80" height="66" as="geometry" />
        </mxCell>
        <mxCell id="s71p1avq3RNVjSZ0dHbL-34" value="ObjectTest&amp;nbsp; 인스턴스" style="text;html=1;strokeColor=none;fillColor=none;align=center;verticalAlign=middle;whiteSpace=wrap;rounded=0;fontFamily=yg-jalnan;fontSource=https%3A%2F%2Fcdn.jsdelivr.net%2Fgh%2Fprojectnoonnu%2Fnoonfonts_four%401.2%2FJalnanOTF00.woff;fontSize=15;fontColor=#000000;" vertex="1" parent="1">
          <mxGeometry x="512" y="339" width="161.5" height="30" as="geometry" />
        </mxCell>
        <mxCell id="s71p1avq3RNVjSZ0dHbL-35" value="" style="endArrow=classic;html=1;rounded=0;exitX=1;exitY=0.5;exitDx=0;exitDy=0;" edge="1" parent="1" source="s71p1avq3RNVjSZ0dHbL-30" target="s71p1avq3RNVjSZ0dHbL-33">
          <mxGeometry width="50" height="50" relative="1" as="geometry">
            <mxPoint x="325.02" y="460" as="sourcePoint" />
            <mxPoint x="375.02" y="410" as="targetPoint" />
          </mxGeometry>
        </mxCell>
        <mxCell id="s71p1avq3RNVjSZ0dHbL-59" value="" style="rounded=0;whiteSpace=wrap;html=1;verticalAlign=top;" vertex="1" parent="1">
          <mxGeometry x="140" y="691" width="160" height="320" as="geometry" />
        </mxCell>
        <mxCell id="s71p1avq3RNVjSZ0dHbL-61" value="Stack 2" style="rounded=0;whiteSpace=wrap;html=1;verticalAlign=top;fillColor=#fff2cc;strokeColor=#d6b656;fontFamily=BinggraeMelona-Bold;fontSource=https%3A%2F%2Fcdn.jsdelivr.net%2Fgh%2Fprojectnoonnu%2Fnoonfonts_twelve%401.0%2FBinggraeMelona-Bold.woff;" vertex="1" parent="1">
          <mxGeometry x="140" y="851" width="159.97" height="80" as="geometry" />
        </mxCell>
        <mxCell id="s71p1avq3RNVjSZ0dHbL-64" value="&lt;font style=&quot;font-size: 12px;&quot;&gt;argument&lt;/font&gt; =&amp;nbsp;&lt;br&gt;User&lt;span style=&quot;font-size: 7px;&quot;&gt;&amp;nbsp;주소 값&lt;/span&gt;" style="ellipse;whiteSpace=wrap;html=1;fontFamily=BinggraeMelona-Bold;fontSource=https%3A%2F%2Fcdn.jsdelivr.net%2Fgh%2Fprojectnoonnu%2Fnoonfonts_twelve%401.0%2FBinggraeMelona-Bold.woff;fontSize=5;fillColor=#008a00;fontColor=#ffffff;strokeColor=#005700;" vertex="1" parent="1">
          <mxGeometry x="173" y="885" width="94.97" height="36" as="geometry" />
        </mxCell>
        <mxCell id="s71p1avq3RNVjSZ0dHbL-65" value="" style="ellipse;shape=cloud;whiteSpace=wrap;html=1;fillColor=#dae8fc;strokeColor=#6c8ebf;" vertex="1" parent="1">
          <mxGeometry x="370" y="671" width="320" height="340" as="geometry" />
        </mxCell>
        <mxCell id="s71p1avq3RNVjSZ0dHbL-66" value="Stack" style="text;html=1;strokeColor=none;fillColor=none;align=center;verticalAlign=middle;whiteSpace=wrap;rounded=0;fontSize=30;fontFamily=yg-jalnan;fontSource=https%3A%2F%2Fcdn.jsdelivr.net%2Fgh%2Fprojectnoonnu%2Fnoonfonts_four%401.2%2FJalnanOTF00.woff;fontColor=#FFE608;" vertex="1" parent="1">
          <mxGeometry x="190" y="631" width="60" height="30" as="geometry" />
        </mxCell>
        <mxCell id="s71p1avq3RNVjSZ0dHbL-67" value="Heap" style="text;html=1;strokeColor=none;fillColor=none;align=center;verticalAlign=middle;whiteSpace=wrap;rounded=0;fontSize=30;fontFamily=yg-jalnan;fontSource=https%3A%2F%2Fcdn.jsdelivr.net%2Fgh%2Fprojectnoonnu%2Fnoonfonts_four%401.2%2FJalnanOTF00.woff;fontColor=#2B32FF;" vertex="1" parent="1">
          <mxGeometry x="500" y="641" width="60" height="30" as="geometry" />
        </mxCell>
        <mxCell id="s71p1avq3RNVjSZ0dHbL-71" value="주소 값이 복사" style="text;html=1;strokeColor=none;fillColor=none;align=center;verticalAlign=middle;whiteSpace=wrap;rounded=0;fontFamily=BinggraeMelona-Bold;fontSource=https%3A%2F%2Fcdn.jsdelivr.net%2Fgh%2Fprojectnoonnu%2Fnoonfonts_twelve%401.0%2FBinggraeMelona-Bold.woff;fontSize=15;fontColor=#FF1919;" vertex="1" parent="1">
          <mxGeometry x="312" y="882" width="70" height="30" as="geometry" />
        </mxCell>
        <mxCell id="s71p1avq3RNVjSZ0dHbL-73" value="10" style="ellipse;whiteSpace=wrap;html=1;fillColor=#e1d5e7;strokeColor=#9673a6;" vertex="1" parent="1">
          <mxGeometry x="449" y="792" width="110" height="47" as="geometry" />
        </mxCell>
        <mxCell id="s71p1avq3RNVjSZ0dHbL-74" value="" style="endArrow=classic;html=1;rounded=0;dashed=1;exitX=1;exitY=0.5;exitDx=0;exitDy=0;entryX=0;entryY=0.5;entryDx=0;entryDy=0;strokeColor=#FF0000;" edge="1" parent="1" source="s71p1avq3RNVjSZ0dHbL-64" target="s71p1avq3RNVjSZ0dHbL-73">
          <mxGeometry width="50" height="50" relative="1" as="geometry">
            <mxPoint x="300" y="991" as="sourcePoint" />
            <mxPoint x="496" y="885" as="targetPoint" />
          </mxGeometry>
        </mxCell>
        <mxCell id="s71p1avq3RNVjSZ0dHbL-76" value="Stack 1" style="rounded=0;whiteSpace=wrap;html=1;verticalAlign=top;fillColor=#d5e8d4;strokeColor=#82b366;fontFamily=BinggraeMelona-Bold;fontSource=https%3A%2F%2Fcdn.jsdelivr.net%2Fgh%2Fprojectnoonnu%2Fnoonfonts_twelve%401.0%2FBinggraeMelona-Bold.woff;" vertex="1" parent="1">
          <mxGeometry x="139.97" y="931" width="160" height="80" as="geometry" />
        </mxCell>
        <mxCell id="s71p1avq3RNVjSZ0dHbL-63" value="&lt;font style=&quot;font-size: 12px;&quot;&gt;parameter&lt;/font&gt; = &lt;br&gt;User 주소 값" style="ellipse;whiteSpace=wrap;html=1;fontFamily=BinggraeMelona-Bold;fontSource=https%3A%2F%2Fcdn.jsdelivr.net%2Fgh%2Fprojectnoonnu%2Fnoonfonts_twelve%401.0%2FBinggraeMelona-Bold.woff;fontSize=7;fillColor=#60a917;fontColor=#ffffff;strokeColor=#2D7600;" vertex="1" parent="1">
          <mxGeometry x="173.00000000000003" y="959" width="95.03" height="36" as="geometry" />
        </mxCell>
        <mxCell id="s71p1avq3RNVjSZ0dHbL-72" value="" style="endArrow=classic;html=1;rounded=0;dashed=1;exitX=1;exitY=0.5;exitDx=0;exitDy=0;strokeColor=#FF0000;" edge="1" parent="1" source="s71p1avq3RNVjSZ0dHbL-63" target="s71p1avq3RNVjSZ0dHbL-73">
          <mxGeometry width="50" height="50" relative="1" as="geometry">
            <mxPoint x="290" y="981" as="sourcePoint" />
            <mxPoint x="424.82758620689657" y="1011" as="targetPoint" />
          </mxGeometry>
        </mxCell>
      </root>
    </mxGraphModel>
  </diagram>
</mxfile>
